<svg viewBox="0 0 20 20" xmlns="http://www.w3.org/2000/svg"><path d="m2.5 17v1h-1v-1h1zm2 0v1h-1v-1h1zm2 0v1h-1v-1h1zm2 0v1h-1v-1h1zm2 0v1h-1v-1h1zm2 0v1h-1v-1h1zm2 0v1h-1v-1h1zm2 0v1h-1v-1h1zm2 0v1h-1v-1h1zm-17.5-1.5v1h-1v-1h1zm19 0v1h-1v-1h1zm-19-2v1h-1v-1h1zm19 0v1h-1v-1h1zm-19-2v1h-1v-1h1zm19 0v1h-1v-1h1zm-19-2v1h-1v-1h1zm19 0v1h-1v-1h1zm-19-2v1h-1v-1h1zm19 0v1h-1v-1h1zm-19-2v1h-1v-1h1zm19 0v1h-1v-1h1zm0-2v1h-1v-1h1zm-19 0v1h-1v-1h1zm13.5-1.5v1h-1v-1h1zm2 0v1h-1v-1h1zm2 0v1h-1v-1h1zm-8 0v1h-1v-1h1zm-2 0v1h-1v-1h1zm-2 0v1h-1v-1h1zm-2 0v1h-1v-1h1zm8 0v1h-1v-1h1zm-10 0v1h-1v-1h1z"/><path d="m4.996 11.5h-3c-1.098 0-2 0.903-2 2l4e-3 2.5c0 1.097 0.903 2 2 2h3c1.097 0 2-0.903 2-2l-4e-3 -2.5c0-1.097-0.903-2-2-2zm0 1.5c0.274 0 0.5 0.226 0.5 0.5l4e-3 2.5c0 0.274-0.226 0.5-0.5 0.5h-3c-0.274 0-0.5-0.226-0.5-0.5l-4e-3 -2.5c0-0.274 0.225-0.5 0.5-0.5h3z"/></svg>